<svg width="263" height="27" viewBox="0 0 263 33" fill="none" xmlns="http://www.w3.org/2000/svg">
<path d="M73.6137 25.4927H68.7742V12.3239C68.7499 10.7517 68.8103 9.17923 68.9553 7.61335H68.7672C68.604 8.60084 68.3693 9.57542 68.0648 10.5295L62.8561 25.4927H58.7798L53.4812 10.6857C53.3429 10.2816 53.1189 9.27212 52.7788 7.61198H52.6405C52.8249 9.76522 52.9171 11.6719 52.9171 13.3321V25.4913H48.3859V3.48492H55.7226L60.2524 16.5414C60.6146 17.5616 60.8798 18.6131 61.0447 19.6822C61.2887 18.6026 61.5985 17.5386 61.9725 16.4962L66.4996 3.48492H73.6331L73.6137 25.4927Z" fill="white"/>
<path d="M93.2525 25.4926H88.3784V23.0914C87.8985 23.9431 87.1957 24.6509 86.3441 25.1404C85.4925 25.63 84.5235 25.8832 83.5389 25.8734C79.8705 25.8734 78.0356 23.6297 78.0356 19.2561V9.78843H82.8143V18.7617C82.8143 21.0053 83.72 22.0819 85.4872 22.0819C85.8822 22.0983 86.2759 22.0261 86.6388 21.8707C87.0018 21.7154 87.3246 21.4809 87.5834 21.1847C88.1422 20.4766 88.4236 19.5921 88.3757 18.6945V9.72131H93.2525V25.4926Z" fill="white"/>
<path d="M102.261 25.4926H97.369V2.22882H102.261V25.4926Z" fill="white"/>
<path d="M115.961 25.3132C114.93 25.7375 113.816 25.9289 112.701 25.8734C109.235 25.8734 107.515 24.101 107.515 20.5561V13.3553H105V9.78709H107.56V6.36272L112.45 4.96558V9.78709H116.007V13.3484H112.412V19.8096C112.412 21.4532 113.068 22.2546 114.358 22.2546C114.922 22.2488 115.475 22.1023 115.967 21.8286L115.961 25.3132Z" fill="white"/>
<path d="M121.192 7.2982C120.445 7.32384 119.717 7.06725 119.154 6.58045C118.902 6.35198 118.702 6.07395 118.566 5.76422C118.429 5.45449 118.36 5.11991 118.362 4.78197C118.352 4.44723 118.419 4.11466 118.556 3.80867C118.693 3.50268 118.898 3.23102 119.155 3.01363C119.721 2.53457 120.448 2.28547 121.192 2.31642C121.936 2.28069 122.666 2.52982 123.23 3.01226C123.483 3.23203 123.684 3.5049 123.817 3.81103C123.95 4.11715 124.013 4.44884 124 4.78197C124.02 5.12304 123.961 5.46408 123.827 5.77908C123.694 6.09408 123.49 6.37473 123.23 6.59963C122.666 7.08206 121.936 7.33119 121.192 7.29546V7.2982ZM123.616 25.4912H118.724V9.78841H123.616V25.4912Z" fill="white"/>
<path d="M138.067 5.95169C137.493 5.7122 136.878 5.58298 136.255 5.5709C134.693 5.5709 133.991 6.42288 133.991 8.10631V9.78836H137.613V13.3497H133.991V25.4857H129.028V13.3552H126.355V9.79384H129.028V7.83647C128.994 7.03227 129.134 6.23023 129.439 5.484C129.743 4.73778 130.205 4.06457 130.794 3.50943C132.119 2.36718 133.84 1.77806 135.594 1.86573C136.43 1.8506 137.263 1.95768 138.067 2.18351V5.95169Z" fill="white"/>
<path d="M153.055 25.4871H148.527V23.2476C148.069 24.08 147.385 24.7691 146.553 25.2374C145.72 25.7057 144.773 25.9345 143.816 25.898C143.155 25.9368 142.492 25.8413 141.869 25.6176C141.246 25.3938 140.676 25.0465 140.193 24.5968C139.742 24.1431 139.391 23.6021 139.161 23.0077C138.931 22.4132 138.828 21.7782 138.858 21.1423C138.858 18.0918 140.692 16.3481 144.315 15.8701L148.463 15.3318C148.463 13.6264 147.536 12.7745 145.655 12.7745C143.73 12.7771 141.85 13.3557 140.262 14.4346V10.7075C141.159 10.2927 142.102 9.98379 143.072 9.78704C144.128 9.5504 145.206 9.42278 146.288 9.40625C150.817 9.40625 153.082 11.6494 153.082 16.1358L153.055 25.4871ZM148.526 19.0931V18.0384L145.65 18.4192C144.065 18.6206 143.271 19.3164 143.271 20.6629C143.267 20.9159 143.317 21.1671 143.418 21.3993C143.52 21.6316 143.671 21.8396 143.86 22.0093C144.294 22.3775 144.852 22.5698 145.423 22.5476C145.847 22.5675 146.271 22.4932 146.663 22.3302C147.055 22.1672 147.405 21.9195 147.688 21.6052C147.978 21.2583 148.196 20.8575 148.328 20.4261C148.461 19.9947 148.505 19.5415 148.458 19.0931H148.526Z" fill="white"/>
<path d="M182.109 25.4912H177.241V16.518C177.241 14.2743 176.381 13.0854 174.681 13.0854C174.295 13.0785 173.913 13.1696 173.572 13.3502C173.232 13.5307 172.943 13.7946 172.734 14.1168C172.193 14.8592 171.919 15.7604 171.957 16.6755V25.4693H167.072V16.4961C167.072 14.2524 166.234 13.1758 164.583 13.1758C164.193 13.1563 163.805 13.2371 163.456 13.4101C163.107 13.5831 162.809 13.8426 162.591 14.1634C162.036 14.9409 161.764 15.8823 161.821 16.833V25.5597H156.927V9.85551H161.819V12.2334C162.339 11.3825 163.073 10.6794 163.949 10.1925C164.853 9.66218 165.887 9.3905 166.938 9.4076C167.909 9.34729 168.874 9.59833 169.69 10.1235C170.506 10.6488 171.129 11.4202 171.468 12.3238C172.005 11.4007 172.786 10.6409 173.728 10.1268C174.67 9.61269 175.736 9.36396 176.811 9.4076C180.252 9.4076 181.974 11.4937 181.974 15.7084L182.109 25.4912Z" fill="white"/>
<path d="M188.45 7.29817C187.742 7.29955 187.057 7.04428 186.526 6.58043C186.265 6.36012 186.058 6.08403 185.92 5.77297C185.783 5.46191 185.718 5.12399 185.732 4.78468C185.722 4.44948 185.789 4.11638 185.926 3.80989C186.063 3.50339 186.268 3.23129 186.526 3.0136C187.104 2.56416 187.818 2.31989 188.553 2.31989C189.288 2.31989 190.001 2.56416 190.58 3.0136C190.837 3.23142 191.042 3.50358 191.179 3.81007C191.316 4.11656 191.382 4.44959 191.372 4.78468C191.381 5.12646 191.315 5.46608 191.178 5.77996C191.041 6.09384 190.837 6.37446 190.58 6.60234C190.289 6.85236 189.951 7.04263 189.586 7.16208C189.22 7.28154 188.834 7.3278 188.45 7.29817V7.29817ZM190.873 25.4912H185.982V9.78838H190.874L190.873 25.4912Z" fill="white"/>
<path d="M199.887 25.4926H194.995V2.22876H199.887V25.4926Z" fill="white"/>
<path d="M219.09 9.78837L212.659 26.7472C211.149 30.8346 208.817 32.8782 205.661 32.8782C204.664 32.905 203.669 32.7685 202.717 32.4742V28.6101C203.366 28.9758 204.1 29.1688 204.847 29.1703C205.42 29.1998 205.987 29.0424 206.462 28.7223C206.936 28.4023 207.292 27.9371 207.474 27.3979L208.312 25.446L201.879 9.74316H207.291L210.257 19.2999C210.456 19.9831 210.599 20.6806 210.687 21.386V21.386C210.801 20.6866 210.967 19.9965 211.185 19.3218L214.176 9.74316L219.09 9.78837Z" fill="white"/>
<path d="M221.536 25.4898V3.48345H229.556C231.555 3.35625 233.545 3.83396 235.263 4.8532C235.908 5.24547 236.439 5.79694 236.804 6.45364C237.17 7.11034 237.356 7.84974 237.347 8.59947C237.36 9.75585 236.922 10.8727 236.124 11.717C235.289 12.6193 234.211 13.267 233.017 13.584V13.584C234.445 13.713 235.782 14.3294 236.802 15.3277C237.263 15.7864 237.625 16.3332 237.866 16.9348C238.107 17.5364 238.223 18.1803 238.205 18.8274C238.231 19.746 238.039 20.6579 237.646 21.4902C237.253 22.3225 236.669 23.0524 235.94 23.6215C234.223 24.8796 232.118 25.5063 229.985 25.394L221.536 25.4898ZM226.541 7.14616V12.3663H228.805C229.688 12.4223 230.56 12.1503 231.252 11.6033C231.547 11.353 231.78 11.0387 231.933 10.6848C232.087 10.3309 232.156 9.94692 232.135 9.5624C232.135 7.94747 230.913 7.13931 228.489 7.13931L226.541 7.14616ZM226.541 16.1194V21.8395H229.258C230.231 21.8948 231.193 21.6086 231.975 21.0313C232.307 20.7629 232.569 20.4185 232.738 20.0277C232.906 19.6369 232.977 19.2113 232.943 18.7877C232.961 18.3919 232.882 17.9976 232.713 17.6383C232.545 17.279 232.292 16.9652 231.975 16.7234C231.185 16.1854 230.236 15.925 229.28 15.9838L226.541 16.1194Z" fill="#D67C3A"/>
<path d="M243.865 7.2982C243.118 7.32384 242.389 7.06725 241.826 6.58045C241.578 6.35094 241.381 6.07221 241.248 5.76236C241.116 5.45252 241.05 5.11849 241.056 4.78197C241.044 4.44907 241.107 4.11765 241.24 3.81177C241.373 3.5059 241.574 3.23325 241.826 3.01363C242.392 2.53424 243.121 2.28512 243.865 2.31642C244.609 2.28069 245.339 2.52982 245.903 3.01226C246.156 3.23203 246.356 3.5049 246.489 3.81103C246.623 4.11715 246.685 4.44884 246.673 4.78197C246.693 5.12304 246.634 5.46408 246.5 5.77908C246.367 6.09408 246.162 6.37473 245.903 6.59963C245.339 7.08206 244.609 7.33119 243.865 7.29546V7.2982ZM246.287 25.4912H241.396V9.78841H246.289L246.287 25.4912Z" fill="#D67C3A"/>
<path d="M262.956 25.4899H248.735V23.4708L256.728 13.3539H249.573V9.78705H262.934V12.1649L255.393 21.923H262.998L262.956 25.4899Z" fill="#D67C3A"/>
<path d="M33.3126 12.9523V24.75L24.9845 32.9589H16.6563L28.6487 20.9147C29.0743 19.2999 28.8502 17.5844 28.0237 16.1301C26.6078 13.6961 22.1941 14.8973 22.1941 14.8973L8.5729 28.3784L4.41366 24.2582L18.1967 10.9716C18.1967 10.9716 19.4411 6.55831 16.9896 5.19678C15.5258 4.36669 13.7948 4.12916 12.1583 4.53382L0 16.4164V8.1664L8.32816 0.12323H20.1961C21.5081 1.06491 22.5716 2.30608 23.2963 3.74152C24.0211 5.17696 24.3858 6.76435 24.3595 8.36912V8.90469H24.9845C26.6007 8.85092 28.2055 9.19142 29.6577 9.89627C31.1099 10.6011 32.365 11.6487 33.3126 12.9468V12.9523Z" fill="white"/>
<path d="M33.1037 24.75V32.9589H24.9844L33.1037 24.75Z" fill="#2E3137"/>
<path d="M33.3111 0.123323V12.9524C32.3555 11.6569 31.1009 10.6065 29.6522 9.88883C28.2035 9.17115 26.6026 8.80699 24.983 8.82671H24.275V8.29114C24.3124 6.684 23.9525 5.09218 23.2269 3.65428C22.5013 2.21638 21.4318 0.976002 20.1116 0.0411377L33.3111 0.123323Z" fill="#2E3137"/>
<path d="M28.0237 16.1685C28.8502 17.6228 29.0743 19.3382 28.6487 20.953L16.6563 32.9972H0V16.4986L12.1583 4.53657C13.7884 4.11497 15.5201 4.33695 16.9882 5.1557C19.4453 6.55832 18.1953 10.9306 18.1953 10.9306L4.58097 24.4185L8.74436 28.5428L22.2356 14.9302C22.2356 14.9302 26.7322 13.6933 28.0237 16.1685Z" fill="#D67C3A"/>
<path d="M8.32403 0.12323L0.0415039 8.1664V0.12323H8.32403Z" fill="#2E3137"/>
<path d="M0.0415901 8.16785V16.4178H0V8.20894L0.0415901 8.16785Z" fill="white"/>
</svg>
